<?xml version="1.0" encoding="utf-8" ?>
<svg baseProfile="tiny" height="600" version="1.2" width="600" xmlns="http://www.w3.org/2000/svg" xmlns:ev="http://www.w3.org/2001/xml-events" xmlns:xlink="http://www.w3.org/1999/xlink"><defs /><polygon fill="none" points="300.0,100.0 473.2051,200.0 473.2051,400.0 300.0,500.0 126.7949,400.0 126.7949,200.0" stroke="black" stroke-width="2" /><polygon fill="none" points="300.0,130.0 447.2243,215.0 447.2243,385.0 300.0,470.0 152.7757,385.0 152.7757,215.0" stroke="black" stroke-width="2" /><polygon fill="none" points="300.0,160.0 421.2436,230.0 421.2436,370.0 300.0,440.0 178.7564,370.0 178.7564,230.0" stroke="black" stroke-width="2" /><polygon fill="none" points="300.0,190.0 395.2628,245.0 395.2628,355.0 300.0,410.0 204.7372,355.0 204.7372,245.0" stroke="black" stroke-width="2" /><polygon fill="none" points="300.0,220.0 369.282,260.0 369.282,340.0 300.0,380.0 230.718,340.0 230.718,260.0" stroke="black" stroke-width="2" /><polygon fill="none" points="300.0,250.0 343.3013,275.0 343.3013,325.0 300.0,350.0 256.6987,325.0 256.6987,275.0" stroke="black" stroke-width="2" /><line stroke="black" stroke-width="2" x1="300.0" x2="300.0" y1="100.0" y2="130.0" /><circle cx="300.0" cy="100.0" fill="black" r="5" /><line stroke="black" stroke-width="2" x1="300.0" x2="300.0" y1="130.0" y2="160.0" /><circle cx="300.0" cy="130.0" fill="black" r="5" /><line stroke="black" stroke-width="2" x1="300.0" x2="300.0" y1="160.0" y2="190.0" /><circle cx="300.0" cy="160.0" fill="black" r="5" /><line stroke="black" stroke-width="2" x1="300.0" x2="300.0" y1="190.0" y2="220.0" /><circle cx="300.0" cy="190.0" fill="black" r="5" /><line stroke="black" stroke-width="2" x1="300.0" x2="300.0" y1="220.0" y2="250.0" /><circle cx="300.0" cy="220.0" fill="black" r="5" /><circle cx="300.0" cy="250.0" fill="black" r="5" /><line stroke="black" stroke-width="2" x1="473.2051" x2="447.2243" y1="200.0" y2="215.0" /><circle cx="473.2051" cy="200.0" fill="black" r="5" /><line stroke="black" stroke-width="2" x1="447.2243" x2="421.2436" y1="215.0" y2="230.0" /><circle cx="447.2243" cy="215.0" fill="black" r="5" /><line stroke="black" stroke-width="2" x1="421.2436" x2="395.2628" y1="230.0" y2="245.0" /><circle cx="421.2436" cy="230.0" fill="black" r="5" /><line stroke="black" stroke-width="2" x1="395.2628" x2="369.282" y1="245.0" y2="260.0" /><circle cx="395.2628" cy="245.0" fill="black" r="5" /><line stroke="black" stroke-width="2" x1="369.282" x2="343.3013" y1="260.0" y2="275.0" /><circle cx="369.282" cy="260.0" fill="black" r="5" /><circle cx="343.3013" cy="275.0" fill="black" r="5" /><line stroke="black" stroke-width="2" x1="473.2051" x2="447.2243" y1="400.0" y2="385.0" /><circle cx="473.2051" cy="400.0" fill="black" r="5" /><line stroke="black" stroke-width="2" x1="447.2243" x2="421.2436" y1="385.0" y2="370.0" /><circle cx="447.2243" cy="385.0" fill="black" r="5" /><line stroke="black" stroke-width="2" x1="421.2436" x2="395.2628" y1="370.0" y2="355.0" /><circle cx="421.2436" cy="370.0" fill="black" r="5" /><line stroke="black" stroke-width="2" x1="395.2628" x2="369.282" y1="355.0" y2="340.0" /><circle cx="395.2628" cy="355.0" fill="black" r="5" /><line stroke="black" stroke-width="2" x1="369.282" x2="343.3013" y1="340.0" y2="325.0" /><circle cx="369.282" cy="340.0" fill="black" r="5" /><circle cx="343.3013" cy="325.0" fill="black" r="5" /><line stroke="black" stroke-width="2" x1="300.0" x2="300.0" y1="500.0" y2="470.0" /><circle cx="300.0" cy="500.0" fill="black" r="5" /><line stroke="black" stroke-width="2" x1="300.0" x2="300.0" y1="470.0" y2="440.0" /><circle cx="300.0" cy="470.0" fill="black" r="5" /><line stroke="black" stroke-width="2" x1="300.0" x2="300.0" y1="440.0" y2="410.0" /><circle cx="300.0" cy="440.0" fill="black" r="5" /><line stroke="black" stroke-width="2" x1="300.0" x2="300.0" y1="410.0" y2="380.0" /><circle cx="300.0" cy="410.0" fill="black" r="5" /><line stroke="black" stroke-width="2" x1="300.0" x2="300.0" y1="380.0" y2="350.0" /><circle cx="300.0" cy="380.0" fill="black" r="5" /><circle cx="300.0" cy="350.0" fill="black" r="5" /><line stroke="black" stroke-width="2" x1="126.7949" x2="152.7757" y1="400.0" y2="385.0" /><circle cx="126.7949" cy="400.0" fill="black" r="5" /><line stroke="black" stroke-width="2" x1="152.7757" x2="178.7564" y1="385.0" y2="370.0" /><circle cx="152.7757" cy="385.0" fill="black" r="5" /><line stroke="black" stroke-width="2" x1="178.7564" x2="204.7372" y1="370.0" y2="355.0" /><circle cx="178.7564" cy="370.0" fill="black" r="5" /><line stroke="black" stroke-width="2" x1="204.7372" x2="230.718" y1="355.0" y2="340.0" /><circle cx="204.7372" cy="355.0" fill="black" r="5" /><line stroke="black" stroke-width="2" x1="230.718" x2="256.6987" y1="340.0" y2="325.0" /><circle cx="230.718" cy="340.0" fill="black" r="5" /><circle cx="256.6987" cy="325.0" fill="black" r="5" /><line stroke="black" stroke-width="2" x1="126.7949" x2="152.7757" y1="200.0" y2="215.0" /><circle cx="126.7949" cy="200.0" fill="black" r="5" /><line stroke="black" stroke-width="2" x1="152.7757" x2="178.7564" y1="215.0" y2="230.0" /><circle cx="152.7757" cy="215.0" fill="black" r="5" /><line stroke="black" stroke-width="2" x1="178.7564" x2="204.7372" y1="230.0" y2="245.0" /><circle cx="178.7564" cy="230.0" fill="black" r="5" /><line stroke="black" stroke-width="2" x1="204.7372" x2="230.718" y1="245.0" y2="260.0" /><circle cx="204.7372" cy="245.0" fill="black" r="5" /><line stroke="black" stroke-width="2" x1="230.718" x2="256.6987" y1="260.0" y2="275.0" /><circle cx="230.718" cy="260.0" fill="black" r="5" /><circle cx="256.6987" cy="275.0" fill="black" r="5" /></svg>